PathFileType	4	(X/Y/Z)	9_coords_data.trc
DataRate	CameraRate	NumFrames	NumMarkers	Units	OrigDataRate	OrigDataStartFrame	OrigNumFrames
30.0	30.0	4	21	m	30.0	10	47
Frame#	Time	THUMB_TIP	THUMB_IP	THUMB_MCP	THUMB_CMC	INDEX_TIP	INDEX_DIP	INDEX_PIP	INDEX_MCP	MIDDLE_TIP	MIDDLE_DIP	MIDDLE_PIP	MIDDLE_MCP	RING_TIP	RING_DIP	RING_PIP	RING_MCP	PINKY_TIP	PINKY_DIP	PINKY_PIP	PINKY_MCP	WRIST
X1	Y1	Z1	X2	Y2	Z2	X3	Y3	Z3	X4	Y4	Z4	X5	Y5	Z5	X6	Y6	Z6	X7	Y7	Z7	X8	Y8	Z8	X9	Y9	Z9	X10	Y10	Z10	X11	Y11	Z11	X12	Y12	Z12	X13	Y13	Z13	X14	Y14	Z14	X15	Y15	Z15	X16	Y16	Z16	X17	Y17	Z17	X18	Y18	Z18	X19	Y19	Z19	X20	Y20	Z20	X21	Y21	Z21
8	0.2999999999999987	0.4625681070334654	-0.02667541237795168	-0.17130495750890418	0.47226393143700507	-0.030420461140890698	-0.15081189529509792	0.47225830242664524	-0.03295680825325231	-0.1197895338176111	0.47561570624549376	-0.03297060588122691	-0.07530787861883681	0.5556474194497473	0.031885925924136416	-0.1777004920671571	0.5482121846047306	0.02090835820517367	-0.1653631386323624	0.5361218812178239	0.008177035492576534	-0.1473701450237307	0.516122313641933	-0.013359669903259541	-0.1165509349191492	0.5761760090860336	0.05614666424313486	-0.14503737780464043	0.5674364942420789	0.041926599886066396	-0.13800810686284815	0.5505368982609269	0.023377883960438273	-0.12318385837652757	0.5259777856781661	-0.005776380690962757	-0.09988092373765944	0.5895207412160615	0.05015623287620985	-0.10991192349479062	0.5784629369090987	0.03772057806848439	-0.10297798857931806	0.5606772591406706	0.0226565461018845	-0.09420732234311313	0.5347336027698996	-0.005527662280830792	-0.08127295239498533	0.6036610280416834	0.01226513873114532	-0.043777682041374	0.5876201389264596	0.00666915060159734	-0.04586928268371804	0.5675074317655701	0.001762646310022653	-0.04936460030834999	0.5345388508854233	-0.009311161449139682	-0.058921111568341455	0.462283081001861	-0.023011742144276925	-0.051989820119430985
9	0.33333333333333187	0.4611492739265547	-0.026182052175973025	-0.17119314876718755	0.47119089406513825	-0.030047798974178974	-0.15088990107908218	0.47169657268614806	-0.03270060728690061	-0.11988140390188562	0.47542833101182536	-0.032932481525825064	-0.07543019228582204	0.5552277392544773	0.032083842985192956	-0.17791582270690065	0.5478490610823596	0.021068228017652513	-0.1655784268990646	0.5358317630394988	0.008293963912553548	-0.1475669706191789	0.5158923220638424	-0.013271349583256264	-0.1167288117667803	0.5759082147266412	0.05633434167703899	-0.14514021949373468	0.5671772813047502	0.042103114129496966	-0.1381228863769024	0.5503065266907431	0.023526371686361403	-0.12330088148703144	0.5258369252307133	-0.0057514271143747075	-0.10005874254133784	0.5892232099242698	0.050248657921601825	-0.11020946154124633	0.5782212884429339	0.03777652484614935	-0.10325219050536438	0.5605170443134498	0.022644025184797134	-0.09443475477819219	0.5346786075693329	-0.005619591132505097	-0.08146309284578701	0.6037353238794507	0.011904762905806665	-0.04401759382763293	0.5876921926735599	0.006318917107013378	-0.0461190856364857	0.5675665189982353	0.0014611820715341173	-0.049607880333716214	0.5345419775174962	-0.009450232407120507	-0.059157966462226264	0.4622830810018609	-0.023011742144276925	-0.051989820119430985
10	0.3666666666666651	0.4595074097900319	-0.026286338659666342	-0.17109460600121118	0.4699005059134014	-0.03011112986258735	-0.15096118788047314	0.4709553005136705	-0.032664943051225026	-0.11995819695139037	0.4752033225731922	-0.03293579338124164	-0.07555356939208568	0.5544273682280029	0.03242622921133875	-0.1782988942515305	0.5471843762506597	0.021349993929830724	-0.16593539639676386	0.5353253431273258	0.008505712300800883	-0.14786891926883894	0.5155848144768684	-0.013145845297175551	-0.11696329395269328	0.5756317441863311	0.056391519813442925	-0.14557460748776824	0.5668825633255694	0.04220095967297399	-0.13849789658753942	0.5500081107192941	0.023688887385731383	-0.12359938730404157	0.5256105468580786	-0.005607485250245348	-0.10030498134441446	0.5889658566719185	0.050253476927748175	-0.11082309421161374	0.5779864091085684	0.037801093884887726	-0.1037953002648958	0.5603261743628962	0.02268712001629969	-0.09485864084275153	0.5345599170524555	-0.005565997047111693	-0.0817215865910047	0.6037244335498297	0.012001525451405759	-0.0445356990163388	0.5876975711772896	0.006351336309404654	-0.04658875652923633	0.5675742153522843	0.0014430939219550742	-0.05001975142959314	0.5345115290926253	-0.009450000422766891	-0.05945811590085304	0.4622830810018609	-0.023011742144276925	-0.051989820119430985
11	0.39999999999999825	0.45858930752202753	-0.027342862688791714	-0.17111368972849222	0.46910949155075854	-0.030860043447007546	-0.15099019183384993	0.4703989985377236	-0.033011734641237744	-0.11996556618364684	0.4750511386873656	-0.033020540729803316	-0.07560063054207411	0.5532007230162813	0.03296852175430498	-0.17880664145178093	0.5461661275546823	0.021816869642779513	-0.16639071934042898	0.534589808379412	0.00884590344093783	-0.1482316251134872	0.5152426413357818	-0.013011004965531314	-0.11722196893517572	0.5750919956270683	0.05653844845384126	-0.14632758300333998	0.566339334631527	0.04242369503449828	-0.1391050722620346	0.5495052768035164	0.024005882894061248	-0.12404491811266521	0.5253119236765946	-0.005336800518348284	-0.10059632507096705	0.5887066735739	0.050316756611564206	-0.11168407254804213	0.5777098816708817	0.037948668664887775	-0.10453557841396155	0.5600718676986792	0.022915230367358763	-0.09542096514346132	0.5343609429815108	-0.005267222717601938	-0.08202624520230173	0.6035692699672596	0.012778107249642456	-0.04528768415710693	0.5875943187535767	0.006949086010597627	-0.047243047324197374	0.5674971700135699	0.0018532668125019747	-0.050552013661645634	0.5344311549430532	-0.009206751729492035	-0.05978229470867291	0.4622830810018609	-0.023011742144276925	-0.051989820119430985
